<?xml version="1.0" standalone="no"?><!DOCTYPE svg PUBLIC "-//W3C//DTD SVG 1.1//EN" "http://www.w3.org/Graphics/SVG/1.1/DTD/svg11.dtd"><svg t="1735195450112" class="icon" viewBox="0 0 1024 1024" version="1.1" xmlns="http://www.w3.org/2000/svg" p-id="8254" width="256" height="256" xmlns:xlink="http://www.w3.org/1999/xlink"><path d="M817.664 393.728l-128.682667 114.688v22.485333l128.682667 114.688v-52.394666l-82.602667-73.514667 82.602667-73.557333V393.728m-284.074667 1.962667v51.541333l81.28 72.362667-81.28 72.32v51.584l126.634667-112.853334v-22.101333l-126.634667-112.853333M417.322667 334.805333a278.144 278.144 0 0 0-86.954667-14.293333c-28.672 0-57.557333 4.778667-86.613333 14.293333a393.813333 393.813333 0 0 0-89.088 43.392v30.848c29.44-17.066667 58.752-29.866667 87.893333-38.272a315.221333 315.221333 0 0 1 87.808-12.629333c29.184 0 58.368 4.181333 87.552 12.629333a403.285333 403.285333 0 0 1 88.533333 38.272v-30.848a393.770667 393.770667 0 0 0-89.173333-43.392m0.597333 331.946667a314.496 314.496 0 0 1-87.552 12.629333 315.221333 315.221333 0 0 1-87.765333-12.629333 391.68 391.68 0 0 1-87.936-38.272v30.848a393.728 393.728 0 0 0 89.088 43.392 276.992 276.992 0 0 0 86.613333 14.293333c28.928 0 57.898667-4.778667 86.954667-14.293333a393.685333 393.685333 0 0 0 89.130667-43.392v-30.848c-29.866667 17.066667-59.349333 29.866667-88.533334 38.272m25.685334-479.146667h-21.76L310.613333 295.253333h50.773334l71.338666-69.12 71.296 69.12h50.816l-111.232-107.733333m-126.506666 583.68v-35.157333H274.218667v35.2l33.536 65.152h26.197333l-16.853333-65.152M176.085333 467.2v51.882667H218.88V467.2H176.085333m-49.493333-72.32L0 507.776v22.101333l126.592 112.853334v-51.541334L45.354667 518.826667l81.237333-72.32V394.922667m882.346667 139.946666c-10.026667-12.8-24.490667-21.717333-43.392-26.709333 16.853333-4.394667 29.696-11.861333 38.485333-22.4 8.789333-10.538667 13.226667-23.722667 13.226667-39.509333 0-23.296-8.405333-41.984-25.173334-56.064-16.768-14.08-39.210667-21.12-67.2-21.12-9.386667 0-20.181333 1.066667-32.341333 3.114666-12.117333 2.048-26.026667 5.12-41.557333 9.258667v35.84c13.397333-5.12 26.154667-8.96 38.4-11.52a172.8 172.8 0 0 1 35.498666-3.882667c17.194667 0 30.464 3.968 39.808 11.861334 9.301333 7.893333 13.994667 19.242667 13.994667 34.048 0 13.994667-5.034667 24.917333-15.061333 32.768-10.026667 7.850667-23.978667 11.776-41.813334 11.776h-29.738666v32h29.696c19.541333 0 35.029333 4.949333 46.506666 14.762666 11.434667 9.813333 17.152 23.125333 17.152 39.850667 0 18.133333-5.717333 32-17.152 41.642667-11.477333 9.642667-27.861333 14.464-49.194666 14.464a151.466667 151.466667 0 0 1-37.973334-4.992 187.52 187.52 0 0 1-38.826666-15.274667v38.784a260.266667 260.266667 0 0 0 40.533333 10.624c13.781333 2.432 27.264 3.626667 40.533333 3.626667 31.488 0 56.106667-7.552 73.941334-22.613334 17.792-15.146667 26.709333-35.925333 26.709333-62.421333 0-19.157333-5.034667-35.114667-15.061333-47.914667" p-id="8255" fill="#1296db"></path></svg>